<svg xmlns="http://www.w3.org/2000/svg" version="1.1" xmlns:xlink="http://www.w3.org/1999/xlink" xmlns:svgjs="http://svgjs.com/svgjs" width="1000" height="1000"><rect width="1000" height="1000" rx="150" ry="150" fill="#ededed"></rect><g transform="matrix(8.035714285714286,0,0,8.035714285714286,50.005609376089865,266.3428447927747)"><svg xmlns="http://www.w3.org/2000/svg" version="1.1" xmlns:xlink="http://www.w3.org/1999/xlink" xmlns:svgjs="http://svgjs.com/svgjs" width="112" height="60"><svg width="112" height="60" viewBox="0 0 112 60" fill="none" xmlns="http://www.w3.org/2000/svg">
<path d="M43.6843 39.5585C36.7255 36.7271 33.1894 36.4202 29.4454 36.0953C25.7545 35.7767 21.9331 35.4392 14.7016 32.5403C14.1643 33.3512 13.7206 34.9262 13.3633 36.8351C20.7982 38.7728 24.562 38.6243 28.1926 38.474C31.8655 38.3228 35.6608 38.1671 43.0858 40.1363C45.5986 40.8032 47.5552 41.4593 49.1113 42.0947C47.7289 41.3306 45.9694 40.4882 43.6843 39.5585Z" fill="black"></path>
<path d="M42.801 42.1091C35.5398 40.1822 31.9937 40.3271 28.2371 40.4819C24.5381 40.6349 20.7068 40.7861 13.172 38.8304C12.929 40.319 12.7328 41.9309 12.5771 43.487C19.9274 44.3591 23.5715 43.7282 27.0869 43.1126C30.7058 42.4799 34.448 41.8256 42.0693 42.7994C45.0501 43.181 47.2955 43.6454 49.028 44.1494C47.4899 43.5023 45.4785 42.8192 42.801 42.1091Z" fill="black"></path>
<path d="M27.2781 45.1043C23.6862 45.7316 19.9656 46.3751 12.4722 45.4913C12.3192 47.1968 12.2139 48.7727 12.1572 49.9418C19.6857 49.8887 23.238 48.7889 26.6769 47.7233C30.1878 46.6361 33.8175 45.512 41.499 45.512C44.0964 45.512 46.1556 45.6434 47.8215 45.8603C46.2897 45.4733 44.3745 45.1124 41.9292 44.8001C34.4772 43.8461 30.9798 44.4572 27.2781 45.1043Z" fill="black"></path>
<path d="M83.8081 38.4973C87.4468 38.6458 91.2169 38.797 98.6878 36.8458C98.3188 34.7695 97.8742 33.1594 97.3567 32.5411C90.0865 35.4625 86.2561 35.7982 82.5544 36.1186C78.8104 36.4435 75.2734 36.7486 68.3146 39.5827C66.0295 40.5133 64.2682 41.3557 62.8867 42.1216C64.4428 41.4853 66.4003 40.8274 68.9158 40.1614C76.339 38.1904 80.1361 38.347 83.8081 38.4973Z" fill="black"></path>
<path d="M96.7938 30.6755L88.9152 7.92529C83.2128 10.1888 80.1717 10.4516 77.2296 10.7063C74.2218 10.9664 71.3814 11.2121 65.7933 13.4864C58.0434 16.6418 57.6231 18.6128 57.3981 19.6721C57.2892 20.1806 57.1605 20.7494 56.4639 21.1202V46.9727C56.4675 46.9673 56.4747 46.9619 56.4792 46.9547C56.5116 46.9079 56.5404 46.8512 56.5692 46.7891C56.6277 46.6469 56.6718 46.4759 56.7258 46.2266C57.0768 44.5787 57.6636 41.8202 67.8984 37.6559C75.012 34.7579 78.7983 34.4312 82.4604 34.1135C86.0532 33.803 89.7675 33.4826 96.7938 30.6755Z" fill="black"></path>
<path d="M84.9107 43.136C88.4297 43.7516 92.0756 44.3807 99.4376 43.5086C99.2828 41.8976 99.0929 40.2965 98.8679 38.843C91.3097 40.8086 87.4703 40.6583 83.7614 40.5044C80.0048 40.3505 76.4597 40.2056 69.1976 42.1325C66.5201 42.8435 64.5095 43.5266 62.9678 44.1755C64.7012 43.6715 66.9476 43.2071 69.9284 42.8255C77.5478 41.849 81.2936 42.5033 84.9107 43.136Z" fill="black"></path>
<path d="M85.3215 47.7477C88.7595 48.8124 92.3127 49.9131 99.8412 49.9671C99.7764 48.6081 99.672 47.0754 99.5388 45.5139C92.0382 46.4004 88.3131 45.756 84.7203 45.1278C81.0186 44.4807 77.5221 43.8705 70.0692 44.8236C67.6257 45.1368 65.7096 45.4986 64.1787 45.8838C65.8437 45.6696 67.902 45.5355 70.4994 45.5355C78.1818 45.5355 81.8115 46.6605 85.3215 47.7477Z" fill="black"></path>
<path d="M55.2737 46.205C55.3034 46.3436 55.3286 46.4561 55.3556 46.5596V21.1211C54.659 20.7503 54.5303 20.1815 54.4223 19.673C54.1964 18.6137 53.777 16.6427 46.0262 13.4873C40.4381 11.213 37.5977 10.9673 34.5908 10.7072C31.6478 10.4525 28.6085 10.1888 22.9079 7.92712L15.2012 30.6503C22.2302 33.4592 25.9454 33.7814 29.5409 34.0919C33.2021 34.4096 36.9875 34.7372 44.102 37.6325C54.3368 41.7977 54.9236 44.5571 55.2737 46.205Z" fill="black"></path>
</svg></svg></g></svg>