<svg xmlns="http://www.w3.org/2000/svg" data-name="Layer 2" viewBox="0 0 32 40" x="0px" y="0px"><title>development</title><path d="M27.46,1.5H4.54a3,3,0,0,0-3,3V27.46a3,3,0,0,0,3,3H27.46a3,3,0,0,0,3-3V4.54A3,3,0,0,0,27.46,1.5ZM4.54,2.5H27.46a2,2,0,0,1,2,2v3H2.5v-3A2,2,0,0,1,4.54,2.5Zm22.92,27H4.54a2,2,0,0,1-2-2V8.5h27v19A2,2,0,0,1,27.46,29.5Z"/><circle cx="26" cy="5" r="1"/><circle cx="22" cy="5" r="1"/><circle cx="18" cy="5" r="1"/><path d="M18,14.5H14a.5.5,0,0,0-.5.5v7a.5.5,0,0,0,.5.5H18a.5.5,0,0,0,.5-.5V15A.5.5,0,0,0,18,14.5Zm-.5,7H14.53v-6h2.94Z"/><path d="M11.33,14.5a.5.5,0,0,0-.5.5v3.32H7.89V15a.5.5,0,0,0-.5-.5.5.5,0,0,0-.5.5v3.82a.51.51,0,0,0,.5.5h3.44V22a.5.5,0,0,0,.5.5.5.5,0,0,0,.5-.5V15A.5.5,0,0,0,11.33,14.5Z"/><path d="M24.61,14.5a.5.5,0,0,0-.5.5v3.32H21.17V15a.5.5,0,0,0-.5-.5.5.5,0,0,0-.5.5v3.82a.51.51,0,0,0,.5.5h3.44V22a.5.5,0,0,0,.5.5.5.5,0,0,0,.5-.5V15A.5.5,0,0,0,24.61,14.5Z"/><text x="0" y="47" fill="#000000" font-size="5px" font-weight="bold" font-family="'Helvetica Neue', Helvetica, Arial-Unicode, Arial, Sans-serif">Created by Ilham Fitrotul Hayat</text><text x="0" y="52" fill="#000000" font-size="5px" font-weight="bold" font-family="'Helvetica Neue', Helvetica, Arial-Unicode, Arial, Sans-serif">from the Noun Project</text></svg>